<?xml version="1.0" encoding="utf-8"?>
<!-- Generator: Adobe Illustrator 28.2.0, SVG Export Plug-In . SVG Version: 6.00 Build 0)  -->
<svg version="1.1" id="Capa_1" xmlns="http://www.w3.org/2000/svg" xmlns:xlink="http://www.w3.org/1999/xlink" x="0px" y="0px"
	 viewBox="0 0 800 800" style="enable-background:new 0 0 800 800;" xml:space="preserve">
<style type="text/css">
	.st0{fill:#FFFFFF;}
</style>
<g>
	<path class="st0" d="M0,798.4c0,0,259.6-829.8,800-795.8c0,0-67,108.5-236.2,143.6c0,0,78.8,9.6,142.6-11.7
		c0,0-38.3,123.5-246.8,140.4c0,0,114.9,29.8,166,12.8c0,0-13.9,92-226.1,137.8c-12.6,2.7-97.3,23.9-29.2,32.4
		c0,0,97.8,17.1,123.4,8.5c0,0-83.8,125.5-289.4,114.9c-20.2-1.1-29.8,0-29.8,0L0,798.4z"/>
</g>
</svg>
