<?xml version="1.0" encoding="utf-8"?>
<!-- Generator: Adobe Illustrator 28.2.0, SVG Export Plug-In . SVG Version: 6.00 Build 0)  -->
<svg version="1.1" id="Capa_1" xmlns="http://www.w3.org/2000/svg" xmlns:xlink="http://www.w3.org/1999/xlink" x="0px" y="0px"
	 viewBox="0 0 800 800" style="enable-background:new 0 0 800 800;" xml:space="preserve">
<style type="text/css">
	.st0{fill:#FFFFFF;}
</style>
<g>
	<path class="st0" d="M625.5,581.3c0,0-9.6-1.1-29.8,0c-205.6,10.6-289.4-114.9-289.4-114.9c25.6,8.6,123.4-8.5,123.4-8.5
		c68.1-8.5-16.6-29.7-29.2-32.4c-212.2-45.8-226.1-137.8-226.1-137.8c51.1,17,166-12.8,166-12.8C131.9,258,93.6,134.5,93.6,134.5
		c63.8,21.3,142.6,11.7,142.6,11.7C67,111.1,0,2.6,0,2.6c540.4-34,800,795.8,800,795.8L625.5,581.3z"/>
</g>
</svg>
